<svg id="eAYKB2oLbaM1" xmlns="http://www.w3.org/2000/svg" xmlns:xlink="http://www.w3.org/1999/xlink" viewBox="0 0 300 300" shape-rendering="geometricPrecision" text-rendering="geometricPrecision"><rect width="116.3362" height="114.230567" rx="0" ry="0" transform="matrix(.484255 0 0 1.000001 121.831807 92.88466)" fill="#1b263b" stroke-width="0"/><ellipse rx="30" ry="30" transform="translate(178.1681 122.884717)" fill="#415a77" stroke-width="0"/><ellipse rx="30" ry="30" transform="translate(121.8319 177.115284)" fill="#415a77" stroke-width="0"/><ellipse rx="30" ry="30" transform="translate(121.8319 122.884717)" fill="#415a77" stroke-width="0"/><ellipse rx="30" ry="30" transform="translate(178.1681 177.115284)" fill="#415a77" stroke-width="0"/><polygon points="0,-30 28.531695,-9.27051 17.633558,24.27051 -17.633558,24.27051 -28.531695,-9.27051 0,-30" transform="matrix(1.180795 0 0 1.08558 150 153.10991)" fill="#778da9" stroke-width="0"/><g><line x1="-15" y1="0" x2="15" y2="0" transform="translate(150 141.072435)" fill="none" stroke="#e0e1dd" stroke-width="3"/><line x1="-15" y1="0" x2="15" y2="0" transform="matrix(.014576 0.999894-.999894 0.014576 150.21864 156.070841)" fill="none" stroke="#e0e1dd" stroke-width="3"/></g><path d="M183.690083,101.643361l12.237867,14.396025q-23.281647-1.066374-17.759757-1.066374t5.52189-13.329651Z" transform="translate(.000002 0.000003)" fill="none" stroke="#3f5787" stroke-width="0.6"/></svg>
